<mxfile host="Electron" modified="2023-08-16T15:09:20.988Z" agent="Mozilla/5.0 (Macintosh; Intel Mac OS X 10_15_7) AppleWebKit/537.36 (KHTML, like Gecko) draw.io/21.6.8 Chrome/114.0.5735.289 Electron/25.5.0 Safari/537.36" etag="8Sm8vPdWQ7rXnHBXYpv4" version="21.6.8" type="device" pages="2">
  <diagram name="FE &amp; BE" id="x-XDlGcgzB11st1gMozg">
    <mxGraphModel dx="1147" dy="726" grid="1" gridSize="10" guides="1" tooltips="1" connect="1" arrows="1" fold="1" page="1" pageScale="1" pageWidth="850" pageHeight="1100" math="0" shadow="0">
      <root>
        <mxCell id="0" />
        <mxCell id="1" parent="0" />
        <mxCell id="jIfLZUCAcS9h326prhcA-20" value="" style="rounded=1;whiteSpace=wrap;html=1;" vertex="1" parent="1">
          <mxGeometry x="340" y="140" width="410" height="260" as="geometry" />
        </mxCell>
        <mxCell id="jIfLZUCAcS9h326prhcA-12" style="edgeStyle=orthogonalEdgeStyle;rounded=0;orthogonalLoop=1;jettySize=auto;html=1;exitX=1;exitY=0.25;exitDx=0;exitDy=0;" edge="1" parent="1" source="jIfLZUCAcS9h326prhcA-1" target="jIfLZUCAcS9h326prhcA-8">
          <mxGeometry relative="1" as="geometry" />
        </mxCell>
        <mxCell id="jIfLZUCAcS9h326prhcA-14" style="edgeStyle=orthogonalEdgeStyle;rounded=0;orthogonalLoop=1;jettySize=auto;html=1;exitX=0;exitY=0.75;exitDx=0;exitDy=0;entryX=1;entryY=0.75;entryDx=0;entryDy=0;" edge="1" parent="1" source="jIfLZUCAcS9h326prhcA-1" target="jIfLZUCAcS9h326prhcA-2">
          <mxGeometry relative="1" as="geometry" />
        </mxCell>
        <mxCell id="jIfLZUCAcS9h326prhcA-15" value="Response" style="edgeLabel;html=1;align=center;verticalAlign=middle;resizable=0;points=[];" vertex="1" connectable="0" parent="jIfLZUCAcS9h326prhcA-14">
          <mxGeometry x="-0.0868" y="-2" relative="1" as="geometry">
            <mxPoint as="offset" />
          </mxGeometry>
        </mxCell>
        <mxCell id="jIfLZUCAcS9h326prhcA-1" value="Backend" style="rounded=1;whiteSpace=wrap;html=1;" vertex="1" parent="1">
          <mxGeometry x="365" y="240" width="120" height="60" as="geometry" />
        </mxCell>
        <mxCell id="jIfLZUCAcS9h326prhcA-6" style="edgeStyle=orthogonalEdgeStyle;rounded=0;orthogonalLoop=1;jettySize=auto;html=1;exitX=1;exitY=0.5;exitDx=0;exitDy=0;" edge="1" parent="1" source="jIfLZUCAcS9h326prhcA-2" target="jIfLZUCAcS9h326prhcA-1">
          <mxGeometry relative="1" as="geometry" />
        </mxCell>
        <mxCell id="jIfLZUCAcS9h326prhcA-7" value="Request" style="edgeLabel;html=1;align=center;verticalAlign=middle;resizable=0;points=[];" vertex="1" connectable="0" parent="jIfLZUCAcS9h326prhcA-6">
          <mxGeometry x="-0.1473" relative="1" as="geometry">
            <mxPoint as="offset" />
          </mxGeometry>
        </mxCell>
        <mxCell id="jIfLZUCAcS9h326prhcA-2" value="Frontend" style="rounded=1;whiteSpace=wrap;html=1;" vertex="1" parent="1">
          <mxGeometry x="40" y="240" width="120" height="60" as="geometry" />
        </mxCell>
        <mxCell id="jIfLZUCAcS9h326prhcA-3" value="- Web&lt;br&gt;- Mobile&lt;br&gt;- Desktop" style="text;html=1;strokeColor=none;fillColor=none;align=left;verticalAlign=middle;whiteSpace=wrap;rounded=0;" vertex="1" parent="1">
          <mxGeometry x="40" y="170" width="120" height="60" as="geometry" />
        </mxCell>
        <mxCell id="jIfLZUCAcS9h326prhcA-4" value="Cafe" style="text;html=1;strokeColor=none;fillColor=none;align=center;verticalAlign=middle;whiteSpace=wrap;rounded=0;" vertex="1" parent="1">
          <mxGeometry x="70" y="320" width="60" height="30" as="geometry" />
        </mxCell>
        <mxCell id="jIfLZUCAcS9h326prhcA-5" value="Waitress / Koki dll" style="text;html=1;strokeColor=none;fillColor=none;align=center;verticalAlign=middle;whiteSpace=wrap;rounded=0;" vertex="1" parent="1">
          <mxGeometry x="395" y="310" width="60" height="30" as="geometry" />
        </mxCell>
        <mxCell id="jIfLZUCAcS9h326prhcA-13" style="edgeStyle=orthogonalEdgeStyle;rounded=0;orthogonalLoop=1;jettySize=auto;html=1;exitX=0;exitY=0;exitDx=0;exitDy=52.5;exitPerimeter=0;entryX=1;entryY=0.5;entryDx=0;entryDy=0;" edge="1" parent="1" source="jIfLZUCAcS9h326prhcA-8" target="jIfLZUCAcS9h326prhcA-1">
          <mxGeometry relative="1" as="geometry">
            <Array as="points">
              <mxPoint x="580" y="212" />
              <mxPoint x="580" y="270" />
            </Array>
          </mxGeometry>
        </mxCell>
        <mxCell id="jIfLZUCAcS9h326prhcA-8" value="DB" style="shape=cylinder3;whiteSpace=wrap;html=1;boundedLbl=1;backgroundOutline=1;size=15;" vertex="1" parent="1">
          <mxGeometry x="660" y="160" width="60" height="80" as="geometry" />
        </mxCell>
        <mxCell id="jIfLZUCAcS9h326prhcA-9" value="Ingredients" style="text;html=1;strokeColor=none;fillColor=none;align=center;verticalAlign=middle;whiteSpace=wrap;rounded=0;" vertex="1" parent="1">
          <mxGeometry x="660" y="240" width="60" height="30" as="geometry" />
        </mxCell>
        <mxCell id="jIfLZUCAcS9h326prhcA-17" value="Client-Server Architecture" style="text;html=1;strokeColor=none;fillColor=none;align=center;verticalAlign=middle;whiteSpace=wrap;rounded=0;fontStyle=1" vertex="1" parent="1">
          <mxGeometry x="333" y="50" width="185" height="30" as="geometry" />
        </mxCell>
        <mxCell id="jIfLZUCAcS9h326prhcA-19" style="edgeStyle=orthogonalEdgeStyle;rounded=0;orthogonalLoop=1;jettySize=auto;html=1;exitX=0.5;exitY=0.5;exitDx=0;exitDy=0;exitPerimeter=0;entryX=0.75;entryY=0;entryDx=0;entryDy=0;" edge="1" parent="1" source="jIfLZUCAcS9h326prhcA-18" target="jIfLZUCAcS9h326prhcA-2">
          <mxGeometry relative="1" as="geometry" />
        </mxCell>
        <mxCell id="jIfLZUCAcS9h326prhcA-18" value="Customer / User" style="shape=umlActor;verticalLabelPosition=bottom;verticalAlign=top;html=1;outlineConnect=0;" vertex="1" parent="1">
          <mxGeometry x="240" y="110" width="30" height="60" as="geometry" />
        </mxCell>
      </root>
    </mxGraphModel>
  </diagram>
  <diagram id="EDZqgSwoAdfC8XH-lRW0" name="CSR vs SSR">
    <mxGraphModel dx="1147" dy="726" grid="1" gridSize="10" guides="1" tooltips="1" connect="1" arrows="1" fold="1" page="1" pageScale="1" pageWidth="850" pageHeight="1100" math="0" shadow="0">
      <root>
        <mxCell id="0" />
        <mxCell id="1" parent="0" />
        <mxCell id="ENrB9fMkQW3twXItyDIg-14" style="edgeStyle=orthogonalEdgeStyle;rounded=0;orthogonalLoop=1;jettySize=auto;html=1;exitX=0;exitY=0.75;exitDx=0;exitDy=0;entryX=0.25;entryY=1;entryDx=0;entryDy=0;" edge="1" parent="1" source="Asoh_RLLP0B2809c0Evj-1" target="ENrB9fMkQW3twXItyDIg-9">
          <mxGeometry relative="1" as="geometry" />
        </mxCell>
        <mxCell id="ENrB9fMkQW3twXItyDIg-15" value="Response (JSON)" style="edgeLabel;html=1;align=center;verticalAlign=middle;resizable=0;points=[];" vertex="1" connectable="0" parent="ENrB9fMkQW3twXItyDIg-14">
          <mxGeometry x="-0.1321" y="1" relative="1" as="geometry">
            <mxPoint as="offset" />
          </mxGeometry>
        </mxCell>
        <mxCell id="Asoh_RLLP0B2809c0Evj-1" value="Backend" style="rounded=1;whiteSpace=wrap;html=1;" vertex="1" parent="1">
          <mxGeometry x="630" y="380" width="120" height="60" as="geometry" />
        </mxCell>
        <mxCell id="ENrB9fMkQW3twXItyDIg-10" style="edgeStyle=orthogonalEdgeStyle;rounded=0;orthogonalLoop=1;jettySize=auto;html=1;exitX=0;exitY=0.75;exitDx=0;exitDy=0;entryX=1;entryY=0.75;entryDx=0;entryDy=0;" edge="1" parent="1" source="ENrB9fMkQW3twXItyDIg-1" target="ENrB9fMkQW3twXItyDIg-9">
          <mxGeometry relative="1" as="geometry" />
        </mxCell>
        <mxCell id="ENrB9fMkQW3twXItyDIg-11" value="Response (HTML &amp;amp; JS)" style="edgeLabel;html=1;align=center;verticalAlign=middle;resizable=0;points=[];" vertex="1" connectable="0" parent="ENrB9fMkQW3twXItyDIg-10">
          <mxGeometry x="0.1785" y="-3" relative="1" as="geometry">
            <mxPoint x="22" as="offset" />
          </mxGeometry>
        </mxCell>
        <mxCell id="ENrB9fMkQW3twXItyDIg-1" value="Frontend (SPA)" style="rounded=1;whiteSpace=wrap;html=1;" vertex="1" parent="1">
          <mxGeometry x="365" y="200" width="120" height="60" as="geometry" />
        </mxCell>
        <mxCell id="ENrB9fMkQW3twXItyDIg-3" style="edgeStyle=orthogonalEdgeStyle;rounded=0;orthogonalLoop=1;jettySize=auto;html=1;exitX=1;exitY=0.25;exitDx=0;exitDy=0;entryX=0;entryY=0.25;entryDx=0;entryDy=0;" edge="1" parent="1" source="ENrB9fMkQW3twXItyDIg-9" target="ENrB9fMkQW3twXItyDIg-1">
          <mxGeometry relative="1" as="geometry">
            <mxPoint x="105" y="230" as="sourcePoint" />
          </mxGeometry>
        </mxCell>
        <mxCell id="ENrB9fMkQW3twXItyDIg-7" value="Request" style="edgeLabel;html=1;align=center;verticalAlign=middle;resizable=0;points=[];" vertex="1" connectable="0" parent="ENrB9fMkQW3twXItyDIg-3">
          <mxGeometry x="0.1077" y="-3" relative="1" as="geometry">
            <mxPoint as="offset" />
          </mxGeometry>
        </mxCell>
        <mxCell id="ENrB9fMkQW3twXItyDIg-12" style="edgeStyle=orthogonalEdgeStyle;rounded=0;orthogonalLoop=1;jettySize=auto;html=1;exitX=0.75;exitY=1;exitDx=0;exitDy=0;entryX=0;entryY=0.25;entryDx=0;entryDy=0;" edge="1" parent="1" source="ENrB9fMkQW3twXItyDIg-9" target="Asoh_RLLP0B2809c0Evj-1">
          <mxGeometry relative="1" as="geometry" />
        </mxCell>
        <mxCell id="ENrB9fMkQW3twXItyDIg-13" value="Request" style="edgeLabel;html=1;align=center;verticalAlign=middle;resizable=0;points=[];" vertex="1" connectable="0" parent="ENrB9fMkQW3twXItyDIg-12">
          <mxGeometry x="0.1049" y="3" relative="1" as="geometry">
            <mxPoint as="offset" />
          </mxGeometry>
        </mxCell>
        <mxCell id="ENrB9fMkQW3twXItyDIg-9" value="User / Customer (Browser)" style="rounded=1;whiteSpace=wrap;html=1;" vertex="1" parent="1">
          <mxGeometry x="40" y="200" width="120" height="60" as="geometry" />
        </mxCell>
        <mxCell id="ENrB9fMkQW3twXItyDIg-16" value="Rendering with data" style="text;html=1;strokeColor=none;fillColor=none;align=center;verticalAlign=middle;whiteSpace=wrap;rounded=0;fontStyle=1" vertex="1" parent="1">
          <mxGeometry x="70" y="160" width="60" height="30" as="geometry" />
        </mxCell>
        <mxCell id="ENrB9fMkQW3twXItyDIg-25" style="edgeStyle=orthogonalEdgeStyle;rounded=0;orthogonalLoop=1;jettySize=auto;html=1;exitX=0;exitY=0.75;exitDx=0;exitDy=0;entryX=1;entryY=0.75;entryDx=0;entryDy=0;" edge="1" parent="1" source="ENrB9fMkQW3twXItyDIg-17" target="ENrB9fMkQW3twXItyDIg-18">
          <mxGeometry relative="1" as="geometry" />
        </mxCell>
        <mxCell id="ENrB9fMkQW3twXItyDIg-26" value="Response" style="edgeLabel;html=1;align=center;verticalAlign=middle;resizable=0;points=[];" vertex="1" connectable="0" parent="ENrB9fMkQW3twXItyDIg-25">
          <mxGeometry x="-0.0942" y="-1" relative="1" as="geometry">
            <mxPoint as="offset" />
          </mxGeometry>
        </mxCell>
        <mxCell id="ENrB9fMkQW3twXItyDIg-17" value="Backend" style="rounded=1;whiteSpace=wrap;html=1;" vertex="1" parent="1">
          <mxGeometry x="640" y="610" width="120" height="60" as="geometry" />
        </mxCell>
        <mxCell id="ENrB9fMkQW3twXItyDIg-23" style="edgeStyle=orthogonalEdgeStyle;rounded=0;orthogonalLoop=1;jettySize=auto;html=1;exitX=1;exitY=0.25;exitDx=0;exitDy=0;entryX=0;entryY=0.25;entryDx=0;entryDy=0;" edge="1" parent="1" source="ENrB9fMkQW3twXItyDIg-18" target="ENrB9fMkQW3twXItyDIg-17">
          <mxGeometry relative="1" as="geometry" />
        </mxCell>
        <mxCell id="ENrB9fMkQW3twXItyDIg-24" value="Request" style="edgeLabel;html=1;align=center;verticalAlign=middle;resizable=0;points=[];" vertex="1" connectable="0" parent="ENrB9fMkQW3twXItyDIg-23">
          <mxGeometry x="-0.0503" y="3" relative="1" as="geometry">
            <mxPoint as="offset" />
          </mxGeometry>
        </mxCell>
        <mxCell id="ENrB9fMkQW3twXItyDIg-28" style="edgeStyle=orthogonalEdgeStyle;rounded=0;orthogonalLoop=1;jettySize=auto;html=1;exitX=0;exitY=0.75;exitDx=0;exitDy=0;entryX=1;entryY=0.75;entryDx=0;entryDy=0;" edge="1" parent="1" source="ENrB9fMkQW3twXItyDIg-18" target="ENrB9fMkQW3twXItyDIg-19">
          <mxGeometry relative="1" as="geometry" />
        </mxCell>
        <mxCell id="ENrB9fMkQW3twXItyDIg-29" value="Response (FULL HTML &amp;amp; JS)" style="edgeLabel;html=1;align=center;verticalAlign=middle;resizable=0;points=[];" vertex="1" connectable="0" parent="ENrB9fMkQW3twXItyDIg-28">
          <mxGeometry x="0.0771" y="-1" relative="1" as="geometry">
            <mxPoint as="offset" />
          </mxGeometry>
        </mxCell>
        <mxCell id="ENrB9fMkQW3twXItyDIg-18" value="Frontend (SPA)" style="rounded=1;whiteSpace=wrap;html=1;" vertex="1" parent="1">
          <mxGeometry x="365" y="610" width="120" height="60" as="geometry" />
        </mxCell>
        <mxCell id="ENrB9fMkQW3twXItyDIg-20" style="edgeStyle=orthogonalEdgeStyle;rounded=0;orthogonalLoop=1;jettySize=auto;html=1;exitX=1;exitY=0.25;exitDx=0;exitDy=0;entryX=0;entryY=0.25;entryDx=0;entryDy=0;" edge="1" parent="1" source="ENrB9fMkQW3twXItyDIg-19" target="ENrB9fMkQW3twXItyDIg-18">
          <mxGeometry relative="1" as="geometry" />
        </mxCell>
        <mxCell id="ENrB9fMkQW3twXItyDIg-22" value="Request" style="edgeLabel;html=1;align=center;verticalAlign=middle;resizable=0;points=[];" vertex="1" connectable="0" parent="ENrB9fMkQW3twXItyDIg-20">
          <mxGeometry x="-0.0927" y="1" relative="1" as="geometry">
            <mxPoint as="offset" />
          </mxGeometry>
        </mxCell>
        <mxCell id="ENrB9fMkQW3twXItyDIg-19" value="User / Customer (Browser)" style="rounded=1;whiteSpace=wrap;html=1;" vertex="1" parent="1">
          <mxGeometry x="40" y="610" width="120" height="60" as="geometry" />
        </mxCell>
        <mxCell id="ENrB9fMkQW3twXItyDIg-27" value="Rendering" style="text;html=1;strokeColor=none;fillColor=none;align=center;verticalAlign=middle;whiteSpace=wrap;rounded=0;fontStyle=1" vertex="1" parent="1">
          <mxGeometry x="395" y="670" width="60" height="30" as="geometry" />
        </mxCell>
        <mxCell id="ENrB9fMkQW3twXItyDIg-30" value="Server Side Rendering" style="text;html=1;strokeColor=none;fillColor=none;align=center;verticalAlign=middle;whiteSpace=wrap;rounded=0;fontStyle=1" vertex="1" parent="1">
          <mxGeometry x="323" y="520" width="205" height="30" as="geometry" />
        </mxCell>
        <mxCell id="ENrB9fMkQW3twXItyDIg-31" value="Client Side Rendering" style="text;html=1;strokeColor=none;fillColor=none;align=center;verticalAlign=middle;whiteSpace=wrap;rounded=0;fontStyle=1" vertex="1" parent="1">
          <mxGeometry x="323" y="80" width="205" height="30" as="geometry" />
        </mxCell>
        <mxCell id="ENrB9fMkQW3twXItyDIg-32" value="Fullstack Rendering" style="text;html=1;strokeColor=none;fillColor=none;align=center;verticalAlign=middle;whiteSpace=wrap;rounded=0;fontStyle=1" vertex="1" parent="1">
          <mxGeometry x="323" y="830" width="205" height="30" as="geometry" />
        </mxCell>
        <mxCell id="ENrB9fMkQW3twXItyDIg-37" style="edgeStyle=orthogonalEdgeStyle;rounded=0;orthogonalLoop=1;jettySize=auto;html=1;exitX=0;exitY=0.75;exitDx=0;exitDy=0;entryX=1;entryY=0.75;entryDx=0;entryDy=0;" edge="1" parent="1" source="ENrB9fMkQW3twXItyDIg-33" target="ENrB9fMkQW3twXItyDIg-34">
          <mxGeometry relative="1" as="geometry" />
        </mxCell>
        <mxCell id="ENrB9fMkQW3twXItyDIg-38" value="Response" style="edgeLabel;html=1;align=center;verticalAlign=middle;resizable=0;points=[];" vertex="1" connectable="0" parent="ENrB9fMkQW3twXItyDIg-37">
          <mxGeometry x="-0.12" relative="1" as="geometry">
            <mxPoint as="offset" />
          </mxGeometry>
        </mxCell>
        <mxCell id="ENrB9fMkQW3twXItyDIg-33" value="Fullstack" style="rounded=1;whiteSpace=wrap;html=1;" vertex="1" parent="1">
          <mxGeometry x="520" y="910" width="120" height="60" as="geometry" />
        </mxCell>
        <mxCell id="ENrB9fMkQW3twXItyDIg-35" style="edgeStyle=orthogonalEdgeStyle;rounded=0;orthogonalLoop=1;jettySize=auto;html=1;exitX=1;exitY=0.25;exitDx=0;exitDy=0;entryX=0;entryY=0.25;entryDx=0;entryDy=0;" edge="1" parent="1" source="ENrB9fMkQW3twXItyDIg-34" target="ENrB9fMkQW3twXItyDIg-33">
          <mxGeometry relative="1" as="geometry" />
        </mxCell>
        <mxCell id="ENrB9fMkQW3twXItyDIg-36" value="Request" style="edgeLabel;html=1;align=center;verticalAlign=middle;resizable=0;points=[];" vertex="1" connectable="0" parent="ENrB9fMkQW3twXItyDIg-35">
          <mxGeometry x="0.0185" y="-2" relative="1" as="geometry">
            <mxPoint as="offset" />
          </mxGeometry>
        </mxCell>
        <mxCell id="ENrB9fMkQW3twXItyDIg-34" value="User / Customer (Browser)" style="rounded=1;whiteSpace=wrap;html=1;" vertex="1" parent="1">
          <mxGeometry x="195" y="910" width="120" height="60" as="geometry" />
        </mxCell>
        <mxCell id="ENrB9fMkQW3twXItyDIg-39" value="Rendering" style="text;html=1;strokeColor=none;fillColor=none;align=center;verticalAlign=middle;whiteSpace=wrap;rounded=0;fontStyle=1" vertex="1" parent="1">
          <mxGeometry x="550" y="880" width="60" height="30" as="geometry" />
        </mxCell>
        <mxCell id="ENrB9fMkQW3twXItyDIg-41" value="CPU &amp;amp; Memory high -&amp;gt; more servers, more cost, not scalable" style="text;html=1;strokeColor=none;fillColor=none;align=center;verticalAlign=middle;whiteSpace=wrap;rounded=0;" vertex="1" parent="1">
          <mxGeometry x="650" y="920" width="150" height="30" as="geometry" />
        </mxCell>
        <mxCell id="ENrB9fMkQW3twXItyDIg-43" value="CPU &amp;amp; Memory (browser)" style="text;html=1;strokeColor=none;fillColor=none;align=center;verticalAlign=middle;whiteSpace=wrap;rounded=0;" vertex="1" parent="1">
          <mxGeometry x="25" y="110" width="150" height="30" as="geometry" />
        </mxCell>
        <mxCell id="ENrB9fMkQW3twXItyDIg-45" value="CPU &amp;amp; Memory" style="text;html=1;strokeColor=none;fillColor=none;align=center;verticalAlign=middle;whiteSpace=wrap;rounded=0;" vertex="1" parent="1">
          <mxGeometry x="350" y="580" width="150" height="30" as="geometry" />
        </mxCell>
      </root>
    </mxGraphModel>
  </diagram>
</mxfile>
